<mxfile host="Electron" modified="2024-04-04T10:13:34.544Z" agent="Mozilla/5.0 (Windows NT 10.0; Win64; x64) AppleWebKit/537.36 (KHTML, like Gecko) draw.io/24.1.0 Chrome/120.0.6099.109 Electron/28.1.0 Safari/537.36" etag="sxTCyoNtDYerZEjE5NP9" version="24.1.0" type="device">
  <diagram name="Страница — 1" id="O7kVTMIXHNrtT1WCRzGX">
    <mxGraphModel dx="819" dy="488" grid="1" gridSize="10" guides="1" tooltips="1" connect="1" arrows="1" fold="1" page="1" pageScale="1" pageWidth="827" pageHeight="1169" math="0" shadow="0">
      <root>
        <mxCell id="0" />
        <mxCell id="1" parent="0" />
        <mxCell id="tIQHdLqvkUWkdvVVBwL6-1" value="&lt;span data-meta=&quot;&lt;--(miro-data-v1)tl2kroutqq+gnq+gn111oZynrqBnXZ2qnK2fhJ9ddV2wk6WRhp5woZSciHhdZ12fnK+cXXW2XaqdpaCer65ddZa2XbKkn6Kgr3+cr5xddbZdpa6qqV11tl2toK6qsK2eoF11tl2ioKmgrZyvoJ9dda+tsKBnXamcqKBddV2frZyypKqan6Scoq2cqGmrqaJdZ12kn111XW5vcHNycW9wbHBwdHFtbG5scm5dZ12dqpytn4SfXXVdsJOlkYaecKGUnIh4XWddsqSfr6NddW1vcWddo6CkoqOvXXVscm24Z12gs6+gramcp46qsK2eoF11tl2tnLJ/nK+cXXVdXbhnXa6vtKegXXVdtrhdZ12aq6qupK+kqqlddbZdqqGhrqCvi7NddbZds111a2ddtF11a7i4Z12unpynoF11tl2unpynoF11a2lwuGddraCnnK+ksaCOnpynoF11a2lwZ12tqq+cr6SqqV11tl2tqq+cr6SqqV11a7hnXa2gp5yvpLGgjaqvnK+kqqlddWtnXZqrnK2gqa9ddamwp6e4Z12vtKugXXVdoLOvoK2pnKean6Scoq2cqF24Z12vtKugXXVsb2ddpJ9ddWtnXaSppK+knKeEn111XW5vcHNycW9wc29wbHBwcXRta3BduJhnXaigr5xddba4uGddsaCtrqSqqV11bWddo6qur111XaikrappnqqoXbg=(/miro-data-v1)--&gt;&quot;&gt;&lt;/span&gt;" style="text;whiteSpace=wrap;html=1;fillColor=default;" parent="1" vertex="1">
          <mxGeometry x="110" y="50" width="30" height="20" as="geometry" />
        </mxCell>
        <mxCell id="S1POpZvNvTF6GCCWDh-q-21" value="" style="group" vertex="1" connectable="0" parent="1">
          <mxGeometry x="21.960906562302256" y="110" width="138.03909343769774" height="94.06313568831871" as="geometry" />
        </mxCell>
        <mxCell id="S1POpZvNvTF6GCCWDh-q-3" value="" style="ellipse;whiteSpace=wrap;html=1;aspect=fixed;strokeColor=#FFFFFF;fillColor=none;strokeWidth=9;" vertex="1" parent="S1POpZvNvTF6GCCWDh-q-21">
          <mxGeometry x="29.039093437697744" width="40" height="40" as="geometry" />
        </mxCell>
        <mxCell id="S1POpZvNvTF6GCCWDh-q-4" value="" style="endArrow=none;html=1;rounded=0;strokeColor=#FFFFFF;strokeWidth=9;" edge="1" parent="S1POpZvNvTF6GCCWDh-q-21">
          <mxGeometry width="50" height="50" relative="1" as="geometry">
            <mxPoint x="95.53909343769774" y="90" as="sourcePoint" />
            <mxPoint x="2.539093437697744" y="90.06" as="targetPoint" />
          </mxGeometry>
        </mxCell>
        <mxCell id="S1POpZvNvTF6GCCWDh-q-6" value="" style="endArrow=none;html=1;rounded=0;edgeStyle=orthogonalEdgeStyle;curved=1;strokeColor=#FFFFFF;strokeWidth=9;" edge="1" parent="S1POpZvNvTF6GCCWDh-q-21">
          <mxGeometry width="50" height="50" relative="1" as="geometry">
            <mxPoint x="94.03909343769774" y="94" as="sourcePoint" />
            <mxPoint x="4.039093437697744" y="94" as="targetPoint" />
            <Array as="points">
              <mxPoint x="94.03909343769774" y="64" />
              <mxPoint x="4.039093437697744" y="64" />
            </Array>
          </mxGeometry>
        </mxCell>
        <mxCell id="S1POpZvNvTF6GCCWDh-q-17" value="" style="shape=stencil(lVrJUh1HEPwarh29VG9nWf4PRQgZwlgoEN7+3lUm+jFT+ciGG3rqnJmuNWu5KZ9+3n35cXuT48/np8ffb/++//p8d1N+ucn5/vvd7dP9s/51Uz7flE/fHp9uf3t6/PP715d///hiJ+2vPx7/sif884KbM0g0VI7/vvySRijj/19+fQE83H8/AkaI9QTIMZRJAC308xtyCbERQA0lnQGNA0ro/QyYIUYCSGEOD5iFAGKQfAIU/YVIaYww2hmQ1yOuA7rXQ6khkzuMFpL7pBGESGlImGcpSeF3KGGeP0n6+uU6IId5VlxNYVQCUD2cbanWUDsBRHhDD5Xcoatez1KqI1Si6T7CPCuuzmXwbwFi8oBC7tB7iN0DWiIA1XTxgE48rkuocgI01QNRXC/rixegxzCItfYc0tk0VJWNGJ++IZ2lpI+gYpXQhwcMdukW2llK9k4GUHeZHlCEGl88m0ZPoXNbGu7S6tMb0zgrTsVATaOuKx4AhX2SXjF7QGKKS0Hgk5ji2lwefBDrJG9o3eeHXmiYaRD5VAyNXLqJzw9qrZFEjVZ8jrNoS/TQ1JinB3QGSCGJB0wGiCsbHAFErBojcgMAUZwGxlIAQIKAht4Cl2YuWlsQECvLD5YNMgDYJ8nKBkcAsaVaQgM9dOKiNXtrNQC7QwLjUwAJM1VDL+ihk0vLXFJ/p/HJWGTnAlAPIbakeb+cFWdpkjiQVJ9FLVKxO0jIEGZYIJPsjc/iEvukBJGvhEE0LeBxCmjkDmVC9C6USpcexvCARD6pXNzlCCCKUw45IBgzVlnE8yUDEPMuxbNKuzQxPgVEyNOF3QFiqwKEvUFjK0hJ2B1U03BpIYFMq4UMiqvENPJYzOIIIJ+U+7riEUBMQ0skAT1Udoe6ePDRvIlYs1IR9AfiolrmtQYAEvlyXnHuCGBSSkASC6WhWqqiAzUi1jR9wWEA4tNaPaM/bAAYNRpRXOqee+8AbcWIA6CTIJCUpYJpUIBGb3BRCiiQUDaAfMUfWI5LadW27wVEXzRtAPOKO7DzqmdgrSzItGU2lyQdl2ldz1c+5SoLiCzlrhbJ4Txz5wSkIdGUnhZTu5yvNLmlFX0u57VSZybhQ+qMlFcln3dmoq4ffTDS8yx1xiBOPpPmtWuEnp/3NUmm8olev8rZ+PdHcElWhiE9irQwBPlo4cfPO/m3utL0+/TbOKkF+9Hn0xDk7VO/n9VTYP9aSmeWCLx/aXxgDBh6Z33yNOCp4Ci0WkvraZfzfeOPAv6Y6Pe7Clj9i3Go6OVp50m8jb52tO+h53P39xUaH3zJX1bP963zLoNNSm7ilXxRuP9+6LysaHnoKrL+MXRdtDqnvamVDS/d48mbwZ4tWreZ2APk3815TPA7AFCIHQBIyg4ANGgHAKJlAOZkQOV2ACCLOwDQUQOwPAyEdw/wg4tN5AXSvgFgWWAAVkdA4WEAVp5BaWMAkg2weDIAq+egPJNBh2BYAMqghBFLTLmo8p1FrAGYWKFMNgCTEhTiCmBBHkt9A5A7YDPBAKxHA+0KBTDegg0RA7CGCLRcFFDYG6CpI3zGi20jBQgJAtiYMgCTErS+hE8vsblmUiI+je27jXlbgxBCJRuzSfYjWwWwjCgFzLsvp32zKwphhvU3pIJ5d0pKpPkB0kYP+rzsxp2RTs30efX8htcxwFvtbDd2brywww67AYgesOmvAFYK4hzCAMSWcDTSLuzjOgCmNS1Sj7MBUvKAxGZa2Y8VNnNqLZ+8pistALR+Gs4fJh+CtVWgHT2OzRZhVGgAJqXhh8LSaZGH08uNx2nRW4FrsDYKDlRls8KQV6w+Aj404xVeyXTxxieddthx7GwTImLeuMJgceRDSxIGYG8Yvt1hACbW4etnEyvbSIBVEhm0gWdDZudAmfq0Aty+gDotCzO2P+OazVwPCnAFx6aIHtFTuNnXR74lJdfmmbzswzWMOWnfyRY9znpIMVKma7sk9WOI4jVht2CA7Pe9FLDZq3DheCqHYgYO5esoNFMb4Bw3NN6yhsPrNssh4Gem6wL0ZLOjA1Ne5YFstI2B5pWavjPQKDWlmoa4oQAaN+ZS0wHA9h/V55webLOP7d1lr2mtKViwVENwlZzWRaz1NsRzMisG2R2q52SZE6DRfd8h9WXw1wHDt6MS3xiY0afFlKlp2NJn8oDMFleL5wLWQmJvqDCZo3pTj/fcgY7OZ/cZKFEyM4FU8qhnu8DZnycBQ887y46U+uj5/sHv965G49GcvoVeF4t487ybEfIJVYSZyuS70vCClKifTeAYiU/ATUQOUGlWMB24fe9G060p2SXPToP8xzfK9wD943WB/dv9w8PL/vvx//3Cu/70sixfPv8H);lineShape=1;strokeColor=#FFFFFF;" vertex="1" parent="S1POpZvNvTF6GCCWDh-q-21">
          <mxGeometry y="93.82288773732094" width="3.3093340568704392" height="0.2402479509977737" as="geometry" />
        </mxCell>
        <mxCell id="S1POpZvNvTF6GCCWDh-q-18" value="" style="shape=stencil(7ZzJjhxFEIafZq6p3JezMe9hyWM8wnis8bC9PRGMquiKv/uPrhMS4mbs/KhcImPPfijvvn/+8O3xIcfvry/PPz/+/vTx9fND+eEh56evnx9fnl7lTw/l/UN59+n55fGnl+dfv358++9vH3Sk/umX59/0//DHGxfDmArl+OfbX5QZVv77b358G//l6evF+ByiGb9CqrfHl5CaHR/L7fE1NDO+htpvj29hrsP4PEMet8f3MPtxfA+FjJ+h5OP4FHK7PT5Fu0GphUQ+kFIoBihhkh1KObRugcqmJP88jkDadvk6ULct2QCRCbYEOYR03KSwyJmlHsbx0FJIbMUjjOMhRCoTaYZezPg0yfgVWjXjI/n/6+ebHR/J+GT3M9ET1u2Lh/Fjk5Hr42vIx/XKAUcGtO37O9BDYzPqoZtrIxebqYkR8nEJolcG/8I6fqElqlgEiMcvNDlGIqWyS2bRPYXFvlC2Ge9ADmXRcxvVAo3tUrIXRwFyM/UL0y66sinVbRP3L8Qw2ZRENKbdJbroEToAnW2rzBiASa5PEY27LLASAUQ2o91WdkHFxiwEiAYooPF6pjeuiMoDILEpybYiQA5O7lfLAJBzqKK0QDSYHakiCEegcdNWC1zRGApZtADreOPq2vbtOiB3ulqA3bjawmgWqGwNovnOAcN6MDoltui5GbNLgLlIKxQEmI8UN5foEiB3WlUvAJ2cQxPpR4CsQYA1ASDC14rVSwqwRVerKhUgV1SEuS8A2C71bRMvpZWcdBubINwp3k1EAwEi3mINyilArnxOAJCDE9WbzgEiGggQvSTAyqeAslm0e4Fq/UkFiPD1Zh1KD9jdqXuBYZ16uYNMWjuoexF45iT2ZZ1WEcdCpjSiVTNqH4i0DrHKYKcnuUBDHKyj1pCzz+QCjbZ5eJcAW8OwwZUHrC1SuBOYERbtAHlzdi4BIq2zXvEEKNC3Y7oXkJAZXAcGrLjF8PcCCXxvB7jmSlOgbE7nvQBkGjyg2QvkAX27X/cCEjT1U8AM6RywbHbCuaILDIp+gZhdAZoRvrLpkVuAMbuibRNRMwIYn0+UZyUWSIB1PAdRbYnlD2K0jquoqrNE9/bJTmp5gFn23PXtnRsrmqTwjTVHJ5qERUEoHHPQbULxE4C5unIjjIslAHOx5JKa/J4ALBoVNWA8V29K2TrTArCwSZSlUWVz0dBvgqWWSTJLrXty3CXZaGZHJ2RBBRgsC9qstKr8kpMWwASXF1fklplLBT5B5HsWm/Xy5pRDQYA4x3LBarYA05biDDQEyJTkzncEiPSNafMICjCnbNhMhR418RNFb5lciCMbAxJxi/u64sUlBMgdHSIaIN8s5hBtnREgJz32xN4lwH1dk8RaPPYTk9MAYNFlXzav5gHTetOLB7xiNuc5AHK0PhARYNWZZh0aD6ibs30vUKxT5gEZtDFPPIhHZaoJHhCt6+oAbdnEtAdM6357wLCJOB+IoMgo0Lds5r1AsxWFtZu9WxmjbsQ7b3HOrZyUsQ8SGLHMXYv2C2qJWcp12mqlOhssvzmuOEwsBq+ySwAw36HGrQZy4biyRJwAxgKJtl1ECQjQwP2uPDFdTUTQ+aLB7GqhhqVc4cbJDWl8StMkTxoHIE2m4simlGzQ3jJ1TgQY0X6hsXNIWxH3cg1sW7PNhTR+H2q+FiwyWcq2oiAnzYLFCs63ZqmIEqjZqhmVVn5w5orqfeDnYNIzY9IgSMsoANA1JKtbxanLDICmDvGgvCtqFp2or6GAOelBvcorQPHUjJlS4z6fLtqId6dpAdzWVmniAQ+uFRrSoGgIkPkXjPBpFeOUtCrAFg2tHZqfZycNBqXvtZ7rQL+SQY3spMHGKcBu3LiSZ2aRIprdnmhDS12Qo+WAeAIDNB9bg2b3wWQ5zkmD/CYr5IsgZLiitJzV7BWVqIhtK/p8omac+pfxKj0A/FYPAM/YAdD39gDw7j0A4gcPgAjFAyAGEoBGihBleQDEcT6wzgEQiyrA61/jHADxtAIsrwERuwdATkABlv2BrIMHQF5DgVOpFgVY5gSyPwqwvAYkpARgzQiYI1OAJQYhLBOAGXbMJA6e+NbsJqyBJb41ajPCV2jXqQSS5gud93isPUS68JdYz9NKUK3dC+935rEdG4eZcq0dkRuHuXgBmJOI2X4FiI3775az+KL/pXIWK3L8X87aFAO71VCv1S/wG5HPAVBz9gCoansA1M09ACrzHgC1fw+A7gIPiNYR9YF4CtASXz4FQA+GBwz7MsEDoC3EAxpcIAeAThUPKDZsUoDZUWie8QAIkD0A+nl8IJ4CsMXIA+aVnC7TS9j15AHdvhBRgPuVDQFewuuoyIiV094wUDMs7yDOtDUonfozI1mfTABaJIw2qBGAmXbx8UxufVba3i9ABKPIcrriKthcYuddgNDJOCpvEIVeycEzTNiN6QHQ7+kDEdx12u8JyXgPgK5YB8C+WwVYOzN09irAC2w2O+MA0M48KvW+scNaANZagE3fY2/Hv5Uls9n7St11bI3XRDbLJcI7JdFUzOfTBwTDAs4TBSsanedDE2zros9dagQXrtH6QFm2TWUO6nvjUxEF2OsVeIyi3gd7vQLPXeagzjo+qFGAKAF8sqMAW3S1IY0CbFvhFdHkgVnJtk1FATYleNg0B02FlGgTRnPw92Lw1moO+pAjT5v0moOm1fT5F9bA2ZS6TdwJ4L1IA9eB5R1yBTvtAhF8DfpYsViD4jhYOQPQ6JNXfZdtjCKX1gS+Ruf9FGlBcWrQ4lSGnEDd7+AtwBTNRfEwg5KT7WMUPUKBbNWMACxbmSEWFSCx143NXlEt1LOTrrYoUjo9B1mDqciJWmD9drJLxuzmTl+k6fPm4zlk7gmkYaOsvLdzXge6dUNlSpnc6VTh4PjrxlTsfRB9Ptkb9mwLbGLEWD5U38QDwJRAgpK2/nQC6w61tanKq/LDFl3Ef2LhBjh82nJC9rTaFIWW28iWwk859EitFfxUROe9GtC1oMU5sl7oEOj8dWmEDptFf/oh2txb42Yk2rKDuOCLCFC0VkfPi67XvqZN1PNEfT2p6oL51EY7kGC9lbc4wX5W/lAczqvyPDfIgzjGme7/uZ8+8cfLH/75nZVPT1++vP1My+W/299lkb96+02X8v4v);lineShape=1;strokeColor=#FFFFFF;" vertex="1" parent="S1POpZvNvTF6GCCWDh-q-21">
          <mxGeometry x="94.60922355771183" y="93.7832586084937" width="3.4313166511961444" height="0.24860932847567632" as="geometry" />
        </mxCell>
        <mxCell id="S1POpZvNvTF6GCCWDh-q-20" value="" style="shape=cross;whiteSpace=wrap;html=1;strokeColor=none;fillColor=#FFFFFF;" vertex="1" parent="S1POpZvNvTF6GCCWDh-q-21">
          <mxGeometry x="88.03909343769774" y="16" width="50" height="50" as="geometry" />
        </mxCell>
        <mxCell id="S1POpZvNvTF6GCCWDh-q-30" value="" style="group" vertex="1" connectable="0" parent="1">
          <mxGeometry x="190" y="110" width="112.97" height="108.52" as="geometry" />
        </mxCell>
        <mxCell id="S1POpZvNvTF6GCCWDh-q-24" value="" style="ellipse;whiteSpace=wrap;html=1;aspect=fixed;strokeColor=#FFFFFF;fillColor=#FFFFFF;strokeWidth=9;" vertex="1" parent="S1POpZvNvTF6GCCWDh-q-30">
          <mxGeometry width="108.51999999999997" height="108.51999999999997" as="geometry" />
        </mxCell>
        <mxCell id="S1POpZvNvTF6GCCWDh-q-25" value="" style="endArrow=none;html=1;rounded=0;strokeWidth=9;strokeColor=#2B9DF8;" edge="1" parent="S1POpZvNvTF6GCCWDh-q-30">
          <mxGeometry width="50" height="50" relative="1" as="geometry">
            <mxPoint x="49.27622772053846" y="78.7396375122208" as="sourcePoint" />
            <mxPoint x="20.390163194705572" y="50.175299691659774" as="targetPoint" />
          </mxGeometry>
        </mxCell>
        <mxCell id="S1POpZvNvTF6GCCWDh-q-26" value="" style="endArrow=none;html=1;rounded=0;strokeWidth=9;strokeColor=#2B9DF8;" edge="1" parent="S1POpZvNvTF6GCCWDh-q-30">
          <mxGeometry width="50" height="50" relative="1" as="geometry">
            <mxPoint x="43.57704745431299" y="78.23743325562158" as="sourcePoint" />
            <mxPoint x="90.30450477551327" y="30.273829435210956" as="targetPoint" />
          </mxGeometry>
        </mxCell>
        <mxCell id="S1POpZvNvTF6GCCWDh-q-69" value="" style="group" vertex="1" connectable="0" parent="1">
          <mxGeometry x="329.9982535389215" y="120" width="121.93174646107843" height="100" as="geometry" />
        </mxCell>
        <mxCell id="S1POpZvNvTF6GCCWDh-q-43" value="" style="rounded=1;whiteSpace=wrap;html=1;fillColor=#FFFFFF;strokeWidth=9;strokeColor=#FFFFFF;" vertex="1" parent="S1POpZvNvTF6GCCWDh-q-69">
          <mxGeometry x="1.9317464610784612" width="120" height="100" as="geometry" />
        </mxCell>
        <mxCell id="S1POpZvNvTF6GCCWDh-q-44" value="" style="endArrow=none;html=1;rounded=0;strokeWidth=9;strokeColor=#2B9DF8;" edge="1" parent="S1POpZvNvTF6GCCWDh-q-69">
          <mxGeometry width="50" height="50" relative="1" as="geometry">
            <mxPoint x="57.00174646107848" y="54" as="sourcePoint" />
            <mxPoint x="119.00174646107848" y="14" as="targetPoint" />
          </mxGeometry>
        </mxCell>
        <mxCell id="S1POpZvNvTF6GCCWDh-q-58" value="" style="shape=stencil(lVfJctswDP0aXTEkwfWcpv+RmTi1p66dcdzt7wtWZSqQypN9k2U8YXvYJn542z+97iZn3q6X89fdz8PzdT/xp8m5w2m/uxyu8jTx48QPL+fL7svl/P30PP9+faqS9enb+Uf9wq8ZZ40hYyrMmd/zK0Ou/H3xeQYcD6cFIBfyVslbchnIe3Ks5JkMkrfkg5KP5N3H8qlQLtoe+QJwIDEVpwGJMrAoBspeAZynYgHAEmsX2FJOACAh1xo4UgSAUChpDd5SAlEKmax22kdKHgAimagAwRGDsAYmr30QIw3Q4AsVnbgoJkUACOSSAqQANXAm1oAs3GMAEJN0LQjbC4pSaBY3QAlN5zr5JK8doECnBdCVpwAy8EHo7QfAP6/WyVfIhgEQAIAbN5cARI1EQWtYdJ11hG01f6MK4Ubx9zgh9TImAoWJ39l8YyIq++5KtWiIuQdE5LRrXWUJACb5RHHgRgCtT4p69CGAsIbSp3oDIM018ABAFWRW2BdBN06+b0wVgGvUDyahXlkBIzU2TBp8QCNInE5jPQCTaljLAECZlph0U3GrRvneGhX2jY0GJEL4XUYNYMpJBSU7xBWV3DAhaqqBD3cDZLfoyRTgHLUUNJc2RtCwvtUZB2IUG9FuHKKyTQUN2BjT1vdzfWMRkBB1GjZWDVt6wMYyI0G1Ogkb61LNgmbexkLmHHlt0sbKJ3lImkgbSyX71hZvXFu9Iat7d12MEUCi1C1kbdVfl2dyWoEwD5VzatNscTmgnTX225hpp8SHOy538hZv3V2piTxa67kntoH+xtwOo4U83ty6hIk8miK5PzNww5bGEAZ58P2c+0sM219cT2nTboh1+Uiu/z6Kf8mUej5Y9P33ibfgD+Db3afwDQB5+H95vxyOx/lwX/7fX+ryar7y+fEP);lineShape=1;strokeColor=#FFFFFF;" vertex="1" parent="S1POpZvNvTF6GCCWDh-q-69">
          <mxGeometry x="113.52999999999997" y="13.195296024590618" width="0.23714111916328343" height="20.10654477644744" as="geometry" />
        </mxCell>
        <mxCell id="S1POpZvNvTF6GCCWDh-q-60" value="" style="shape=stencil(7VvLchs3EPwaXlF4P86O8x+ushypokguWc7j79MIgxXR4PaKuSWVm0xvEwvMTE/PDHgKH77df/p6d/L22+vL8893vz18fr0/hR9O3j883d+9PLzir1P4eAofvjy/3P308vz96fP5318/9Sf7X788/9q/4fczLloTckd5+8f5kxZM8H998uMZ8PjwdAmIptkJUJvxSQCqSWUGJGPbPiA5k8IMsCZaAYgmz3soyfgsAMWkNgOssWEfkO144wHI2EOUADql7EwWx5q9CfMp4SVrFYBovJ8BwTT1Stn4OAFi0ytU4+ZNx2SKsHQ/RDcDsGlhuOJMmFcIsIwTAG8iAcJwluuAYPzsS76ZLJwPgDIfq8/GCl/qgDQDvMnqlPDG8wquHe3BzSu4bIo6Vm/SbGm3Ocue4SKtgE9UPMA3ZwB8RXl34i0UE8QO4Nx5joY8Ftz9/kzPK8ZALBABJNN0KFR+Pis/daZRcJqgnk8mWXreKQs3E/n7rXi+BhPzLc8XDkz9Pg10x9+v9osc8/dxv+88G7iL2NE0EcWtjAC58Af9/cS+VfJQS5w1nTNFAaIp8wIIScUSADiK4SpTFI40z+Tr8UrCpwGwRFxJUmPzpi1cGvUKbrZCwFdotyAeCslUvWnioVBNUIDI+QACSJFvN9zsqVHrI7iGn18pHuwhDUfYAFWSI5zVEllY7XyIHoo2pEUNIAWWkvbWzEkwVUkwALQZAMUkDVeMm18pb1luFzAHUE8qyr0zZ01kidsMl5HIVTxE1hbI1Ac0SaxR4iDavRCtMwmUoonVmzJvGlrbFr0CZf5Nk+2yBq2wVRB7AGINZCMZos7Y2b2b3gMKFlqhryn20AsWKpJgSiUK63C1DVCkioSrkdZuTRZJcU0o1sqQQzqgHNrqIPTru2bXQIQoNY8EFPmQvAgHy5oEVrDCVy3THuyokrozkXJ6lgUS3p/KzqhLtpEHLiLBK0Yyad5vDzXx/JukuAhmtQG3aAboSlUooI7wVAejOBE8Dw1CNSRKB+VDKG0CkWqVmaR7xcLCyosAILfLQfKL32rSi9Lciz2gniM7ILmpY/WLZkhZWtov2RAJWoUafMnNvpewBxWbli0NkdGEHQJKc9I9ecTrHiAtQklpdABY9zipSgAoc4BC7DXB8wDU2TVClu4NAJUxIUrRDT1LiaEfg9qD50LVH9jBLw2MLEvzDpgtDWKryg6eeawzp16BAK7J6j9sKueigVGVLy17cJqKO4DqMT/YfxdAEmA4167dZjOUoy2TY0SdO/0giM0IpqrnUYRQx0aSXihLD0kW9HEpDq0s9VCBUEPCyu8Hg1IjT4uXvNXvF9+v23hU0NvRI94VbIHOJ4iwrI6fP1CQfijSjSiOGjzUPw6S6pDoKc9utcZuQ4sbMF58P1Kk4+eT6rAH9n/9PGpkbn/L9+nM727YL3icGjb6PHu819P77YXnb/KHkG7zt2i5Aan9OS4NWh0vqO8Lx4uMx6XxouO9bKn9fXwCpUslmuarusxbNB92qU5JT/LtP3jeLf4sdEF/nrT+MMgun1B7UM/IQFjUcXVhvOIugFLq1vTcBdAr6d5DB1AM6IHUuoL3Urmvmz6giX6s1BMtkoe63cgvmuy61kXPdXWkMo1nZgeXyVPyXFcj+Qe9BypMQxul/x4gz5uO27xjF0BqCHLo4JSI3g/24NgOfbipEn5bJi5eujcYiRRXijJE+wx6NlwqskaDZqGCKDU9Pl3skL1UpWVx7xxlWgZt01AhF8kaxS5NVD3cxH9HEtZb1XYdUHiFEkeuvg5YpFHJ0tI4RKrGoQ5V2Zgti9OejpRaLjwjqEEaDq5G6b8mOdFNSyO4Fi3gHfddmpXdOKxAI9rm9SsFtkOL0jX6aH/puqocB1FIdjjoKHZVRafUxifXAUsGqjo/RD9Y6J3dbwAo7R7013ulRm1OK1vNfX5FTb8i4wFcTZ2dorNovyZCK3jZkAe5WyKypuVw5Xr/baJ/HdDGdOmySyicD4BEzOfkNCg2bvmDvZPadFvuFBQdQJZ7EJ0WxCkBQD285GUWBYD2EJv0VrAGJZR4TDPUJUyaZtyo0zaAH0y1x0s0u4SaUY3LtIy1g+7tdCKbXQOKTDXMejN3du/g5JU5AIiXIEPVZBGOQO2sPs1Qm17HR1q39gEwAfKYNuzmOGr6eRlxCBduUVm5wv+Xiv59l4q4h/SfvlRUFrUt54MXA9wtletJOTLIbDC3tRH2AOTR/WKgGllWvjnSrx7qaxoM0FlwvZvSx21q04lTP45V0TVEI91K7SX6TZcogp7GNcclSShSjcCzyfMgLNWma11uISXJXXWxQ9INPdQTTF5RX6IIowG2AarM5CjR66KoVJuhLAPzN8bfLdHnV0I56lR5G5cJe5IUvxbQENuyNFxUYS/chGv0O0dUYRwU0IE7H017K8pbkmBND8z7eJxW0BU3Mnm0DFBMmZa7Wr00VO3qyL8p6BdytFCtYQEI54uNb/wfrBAzZ9umR35xucDfT0kQWVx+ItCibCiBVKg07JZWKywFQ9suxewCbvv1yDEAf7z9WOXLw+Pj+bcul//PP27BR+cfxoSPfwI=);lineShape=1;strokeColor=#FFFFFF;" vertex="1" parent="S1POpZvNvTF6GCCWDh-q-69">
          <mxGeometry x="113.58406546211307" y="10.97876601150108" width="0.2793641624574494" height="2.5024024103901645" as="geometry" />
        </mxCell>
        <mxCell id="S1POpZvNvTF6GCCWDh-q-61" value="" style="shape=stencil(7Z3JshzHDUW/htuKnIe1LP+HIkRZDMuigqI8/L0BMaq76+L16eDKXnDHCS8rE9PFBTL5rn73+88//Pb+XUm/f/708e/v//Xhx88/v6t/eVfKh19/fv/pw2f71bv6/bv63U8fP73/26ePf/z645ff//aD/0v/1T8+/tN/wr+/yO19tOVSJf3ny5/0euT955/89YvALx9+fRSYxxSBfhQS6MecV4F1pAUCVQVGPnIBgXyM6yeNdpT8XGDto5SrwDzqAIF0zHoV6EedIFCO0q8C5aj0Sf1YXVfYcEq2wmpXgXXs9lxg7iOni8DMR6ogcNPrTcBMA05pplOvN4F+dFCc6bUnFWiwB7OcNnQPAz7JDCEP3QNZ6zBNX/Uwx1FhD2b9U1ZgW+rpWFM3veCTmuk1bHqD8fV8VLGlee7qbYF21OBAiQTMg6+fZOeWQHGm6XLVdB/HTGxLV+Pr+0jgQOYu+kkVBeznTXGgcWwSMFtqqocEmm4WZkTA4hL4dF3HCAIVXLTO011uAgnNu6WjyymZ8cEKrZy2+XCsmQT6McT40pHhWM28NaGMY5EDlTO4P6SsRv5gWxTjM+sin95Hv67QxtFhBTsTSSjNTgk0baa2rgml7mOzP5Rr1Kj2I2APFufaddO1oYvOpYorG1dY8xhbBehYd1J/qJxQ1jqqCCxO7F1d1PSwaQU7paBpiq0rq7Wal5O1zoA1LI5M0sPU/NAnJ/Z0xuoHB9oQBGY5Ed6DA1Ew9vRxtVbHfJAfDOzsqZse5HHrDRjaIMzcUepNwMAERb6pOc6CQIFNW+SrQdOUUCwY9+um28DYWnsQqK/CvWjaogZG73T+vIeoQabRmoJEixoITrb6g/s0BeNxGsJNoHBszVoO2ApkSxZbJYvaHgackkVvMT47aArGljPb9VjtoMmnzR9y0DQ5kJ2SrtA5ZaUzVt8E2rmrtxV3w1+PewA9mANJ2rVTokrRErvswfRApuH+JcaXGYaGMGOmQSWN+fS+rmApi8C6nYnsoYzzI9920VsKvAkUzA8RYJWEGagF48sTo7eZWlxhwbFajOiy6YzWaqcuKSsvrOPKOgHbgwB5XAlRwz4JBax67npKHUyjTC04cj3RxzMBKY8t04OiSz3/+rZAZoF8tOueM2ddU2sLik5gSvbXiuD6iRqffZKG1oTpwTadRKBjKVqaUgLmUVTRuD9ej7VldAcT6BIpy3luT23vq9K0ryChtSHO9T2E4E2Qz9QktuRlF31SCwIDCxRX3FIBStNmGnOrwKRNJ+VyXABMI+/zix8/iQTWidceN00CM+ihI6jM46znHxRH/mAenMSW8lmyvC3QzoT2mHUBheZQit6j89sCRdki82k81hxy4nylhy6VZT9R4zNNj6vivLIE8zYBLXa5/jaBEo71xR62mHdG5GACGjUYkJmAmvdCyOcJLZZAdErjDCoPZRxxm/lGfT6QcJSBzLyVJ7+Z4zMBsVZD73isLbB2+0yTzwSUhOO8bg4kTLxV5NSvMAHRw0onf/RMQEiHZWvyCsKersl7KEoZb0v1kBTNHyTcmwAigabQey1ki8yDJQgsBmRWLEhcWgNDpQGFLMfaTnzzDBiPqnpA9nRrzbQytoF6C7Z0C23PmEdBoU4HEZFY9JNmxzJuJEWV08IzrNBjG2ijgJ+SHGs6wfhTPVytdRVcod46LA+apqRodaRE79UxLjm4LypAxImhGYE/Zq0Yl0K/wslLctGswXi9yEBZKYE50bw9VIpA47S7gkBizFe1QhnzrCie6UGy6DDz/ipNeysLPunOKN8EMlNktofQ4KA6rk0tp/vCyNeDLZkPUjnQurJ2fXKTJilPfidgn1GVkh9s01gdx+5aYYEQjA06UMHh6H7qCoMEmh6rNy3JgSwrS6NpYOFnK0hXx3tVJDDPeuSG+Tjce54Wgcb1dA7MY0ZivcS+0cK45JTB9VjdWEhghhXKmfWe2ZJwOWUxH5U1athHVjLv23DGTaAdnbBGIHPKzVieoZkWBHAPXW2pFCwtPSkmFSDTqKHx6iu8iBpb90CIzE2tqcAgJFDCKXEDvAVkbJqmEt+xhggM5JhbDW3RiebdqjYtTWADErBT0o5Ixqal6yH0grFvtBVreN+IWOypPPk96z2jjFcgc4jFNgEZzPGePDlQHCOrqOkaBhF85IRXEDRjaLwRdGjKJFpCoc6UR40w2Ub8kgeyqx4sxxVOu8LomsAL2lsr9oK41Yn1qnugsZnStLtmAshK14CXNo7ClarMiaGZVzA0tNhpUM2jkFgro/sSrbUjv+QUWuBmMItuTbv3YvOZLUnh17ngcAotCEwy7xZWGDidZx6Xgx4wi3bN031j9PbudXDRF60sxa0Zi6YahinMgbDgSJof3OPIvNfJMTz69IsOR4gaNEDrZE7RTRNeMgeKUJpqUQc7waepF2wCNZQ0m3HrVwsI1jABit6+adlD49ZUDVMwL7plTZlEn1ohga6xtTHZ76YhLZHEephK21VuupSl0bvyQLmje8HeCwvwt9E9u+g3dP8N3f+P0H0J3TJGlT6zJfU0IzIzDUlZ5qII1nuY2drYsKgh8rWCPXZzUZmib8xgeRC4ZqC2kdF13CpYg621DA1kPmZMgayECXSmHkuYO3uRH2qYMOwFR3TvI78PCYU4sla1tPTLBET2hxFdE8DbDENnqxtHb0MW0vzqGWHoCISUHSvRRQZ2dICWGay+A0jMPIHedVBtNKTtWmh+jYn9aR9blhU2Fk0W7iVqzIQeZz4t7YTJ9yXuLfibQGfM1zTyzYVsqM+bS6t2nj3Ap+heLhwNTLst3u5pWNI4i1HDKYFAD/lhZoytfWtpaYqj6G2mJmyomQZRLTOHBh53aWbXy2uzYh1nh6inNJHBmkUdaGW+3RNy3KoIQ70XcDWNxYNn3jGRhvbEcG9hq8gK3Nt1W5KmfGasES4R7oI0hYPEa2zdDUcXalEGa3dExqXrLOmePNUS0P3euOlczwR1CuSUUCIM9tsKk9KuDnnthaAy3ESzQ6XRiKS2vRMWouFmjxsefH/SAms1BJQh5rmv0fBIiPMTf37WfqhHC2oza1Vs8YticAn91sE2qgY0KtO4ipGc9qUkouHU4AD9+6729mJMqyuybYtjozp945wWrp41ts+pYzUeZvDfl1C/EOYM7fGycCZgqn4LD8sG3GIWSIVwDgr2eUQeTNXh9ISZwD9AtlCxD3BnEx6qzkEEXdPGcuW7qn6G0iJq3CfuOrRTJ7vlt0HtPwW+DWpHgf/DQe1wIbHxRWmf/RBbKpw2A/9cN/b2ctaa0BuQNPCSNHNaZKVN7xCWOrLJ4e2QF5xkKHUyI+YQV/PgwdocrtgkHEo1pWnT4CxBn1m2VNkZB9lLmO9hKOsFrVDbyJ3XcEF6cAM6jA/lzAIr3EHiRxLqULT54qJW7DIWHmawvxY+yKya8I6XIEI7vxiy6soHlc4T4GEQwC/MkWf2UOTMV1e7ZMIv86iypzax1MSmFExvM0MVrrTmjCPmfm9RnJMfe2nhzp+7H19p1cZQYW6+qju7cRHLVhWbm2XgEHt4msgjBgtIdWSZiO5o1KaZLfPUu7m0TDVmNtYWnibiyzg9cJcbGeEeLr5kfr7JG7tfdd3UiXtp2hS8r90DRjLDIIEWnhjxZMeXFWTeo3AVXEOZamEPZ95TqBn4AlJNIbDyjXCr66Th4VGMBMKLIZ6AyUGD4hxmkR5igp4IDJ3Fa7pprM6rTmPYsRJ87iHueYuc3xmSSeh7x/vtTbeA85iUa7Ek7vzaRtd3JArPDvkgXLgjSIzwCO+qVH6dzPtIMgTZ0Ph6gDJ1YUul10BkTH7aIlDIlZ/G8xeqpEqv+EDUWIob/MED4kbDOJPXDGB83kAJp0SfNIMevO6hC0jhQl7j2z6mOKGQG/tDD5fOG/fCvMeZ9ZPQlmooWPlSYd/h3m9nUq9qqHR0Q7a0wgTuxGJvhj5Se6HpHTTNVy9XbMQWdCAT0GspnHbnCoNrfBfH231hNI6i95jKWvm7cWTe643XmOidobHDbR/+pFnCDBc3DGZTBrdxu3qGNw3N44gIMD3EERSC6vcbgQ8kMbUYV9cS647Fn62gWfQFbR0m3Sxq4PuYTWcaW8UycaZAEQ28PuqvkgaPI02P8FpA5zm0kRTbu8fBsfZwM8Cf9yOBHu7XVTSNHh825VPyh4nkCmziSbfw7OjgYaMWxiztk4iJ7vG92BcJZWjT0J/YpBelQhewv+j6hBelOl8liFHDPpJOaRYNAi9mfE1NUvi9GJ0eI7QOO7+71TQYj429W2/9xTc+SdPhpv395dKnIFFMY3JCKRpmRsfBNctAusJAltL1EPZAPK59sTrQRMxnh6hD8v0cA3uWgfSmDD87usKd2cGPMKzbMN+DtZLH7fLGm7d0rDuHp1PHSTe//UkrCGxEZP6+QbBWiq1zhhtLixFZGGYYDQs/g3B6jTdjib/CizheqIEDrTj52fE6xA68Ri/YPN1FWXWL51Rw7KIwtCfsI+6qtKAndhJo+m5v23hKO+Alp0aoNxNvBmxMu3uGtuBG5mQvnThsG8mcvbWO6wmz6L49TPEgQHhph+mkzg70MIv0YExUge+tdZlbHzjE17/I/1rAfnH/DwB++vDLL1/+/4DHv9f/MMD+6Mt/NlC//y8=);lineShape=1;strokeColor=#FFFFFF;" vertex="1" parent="S1POpZvNvTF6GCCWDh-q-69">
          <mxGeometry x="113.82319398786433" y="9.470910454434943" width="8.107002177921423" height="12.807983639204263" as="geometry" />
        </mxCell>
        <mxCell id="S1POpZvNvTF6GCCWDh-q-62" value="" style="endArrow=none;html=1;rounded=0;strokeWidth=9;strokeColor=#2B9DF8;" edge="1" parent="S1POpZvNvTF6GCCWDh-q-69">
          <mxGeometry width="50" height="50" relative="1" as="geometry">
            <mxPoint x="64.86174646107838" y="54.30000000000001" as="sourcePoint" />
            <mxPoint x="2.8617464610783827" y="14.300000000000011" as="targetPoint" />
          </mxGeometry>
        </mxCell>
        <mxCell id="S1POpZvNvTF6GCCWDh-q-65" value="" style="group;flipH=1;" vertex="1" connectable="0" parent="S1POpZvNvTF6GCCWDh-q-69">
          <mxGeometry y="9.000910454434973" width="8.400196165785758" height="23.83093034660311" as="geometry" />
        </mxCell>
        <mxCell id="S1POpZvNvTF6GCCWDh-q-63" value="" style="shape=stencil(lVfJctswDP0aXTEkwfWcpv+RmTi1p66dcdzt7wtWZSqQypN9k2U8YXvYJn542z+97iZn3q6X89fdz8PzdT/xp8m5w2m/uxyu8jTx48QPL+fL7svl/P30PP9+faqS9enb+Uf9wq8ZZ40hYyrMmd/zK0Ou/H3xeQYcD6cFIBfyVslbchnIe3Ks5JkMkrfkg5KP5N3H8qlQLtoe+QJwIDEVpwGJMrAoBspeAZynYgHAEmsX2FJOACAh1xo4UgSAUChpDd5SAlEKmax22kdKHgAimagAwRGDsAYmr30QIw3Q4AsVnbgoJkUACOSSAqQANXAm1oAs3GMAEJN0LQjbC4pSaBY3QAlN5zr5JK8doECnBdCVpwAy8EHo7QfAP6/WyVfIhgEQAIAbN5cARI1EQWtYdJ11hG01f6MK4Ubx9zgh9TImAoWJ39l8YyIq++5KtWiIuQdE5LRrXWUJACb5RHHgRgCtT4p69CGAsIbSp3oDIM018ABAFWRW2BdBN06+b0wVgGvUDyahXlkBIzU2TBp8QCNInE5jPQCTaljLAECZlph0U3GrRvneGhX2jY0GJEL4XUYNYMpJBSU7xBWV3DAhaqqBD3cDZLfoyRTgHLUUNJc2RtCwvtUZB2IUG9FuHKKyTQUN2BjT1vdzfWMRkBB1GjZWDVt6wMYyI0G1Ogkb61LNgmbexkLmHHlt0sbKJ3lImkgbSyX71hZvXFu9Iat7d12MEUCi1C1kbdVfl2dyWoEwD5VzatNscTmgnTX225hpp8SHOy538hZv3V2piTxa67kntoH+xtwOo4U83ty6hIk8miK5PzNww5bGEAZ58P2c+0sM219cT2nTboh1+Uiu/z6Kf8mUej5Y9P33ibfgD+Db3afwDQB5+H95vxyOx/lwX/7fX+ryar7y+fEP);lineShape=1;strokeColor=#FFFFFF;" vertex="1" parent="S1POpZvNvTF6GCCWDh-q-65">
          <mxGeometry x="8.163055046622418" y="3.7243855701556754" width="0.23714111916328343" height="20.10654477644744" as="geometry" />
        </mxCell>
        <mxCell id="S1POpZvNvTF6GCCWDh-q-64" value="" style="shape=stencil(7Z3JshzHDUW/htuKnIe1LP+HIkRZDMuigqI8/L0BMaq76+L16eDKXnDHCS8rE9PFBTL5rn73+88//Pb+XUm/f/708e/v//Xhx88/v6t/eVfKh19/fv/pw2f71bv6/bv63U8fP73/26ePf/z645ff//aD/0v/1T8+/tN/wr+/yO19tOVSJf3ny5/0euT955/89YvALx9+fRSYxxSBfhQS6MecV4F1pAUCVQVGPnIBgXyM6yeNdpT8XGDto5SrwDzqAIF0zHoV6EedIFCO0q8C5aj0Sf1YXVfYcEq2wmpXgXXs9lxg7iOni8DMR6ogcNPrTcBMA05pplOvN4F+dFCc6bUnFWiwB7OcNnQPAz7JDCEP3QNZ6zBNX/Uwx1FhD2b9U1ZgW+rpWFM3veCTmuk1bHqD8fV8VLGlee7qbYF21OBAiQTMg6+fZOeWQHGm6XLVdB/HTGxLV+Pr+0jgQOYu+kkVBeznTXGgcWwSMFtqqocEmm4WZkTA4hL4dF3HCAIVXLTO011uAgnNu6WjyymZ8cEKrZy2+XCsmQT6McT40pHhWM28NaGMY5EDlTO4P6SsRv5gWxTjM+sin95Hv67QxtFhBTsTSSjNTgk0baa2rgml7mOzP5Rr1Kj2I2APFufaddO1oYvOpYorG1dY8xhbBehYd1J/qJxQ1jqqCCxO7F1d1PSwaQU7paBpiq0rq7Wal5O1zoA1LI5M0sPU/NAnJ/Z0xuoHB9oQBGY5Ed6DA1Ew9vRxtVbHfJAfDOzsqZse5HHrDRjaIMzcUepNwMAERb6pOc6CQIFNW+SrQdOUUCwY9+um28DYWnsQqK/CvWjaogZG73T+vIeoQabRmoJEixoITrb6g/s0BeNxGsJNoHBszVoO2ApkSxZbJYvaHgackkVvMT47aArGljPb9VjtoMmnzR9y0DQ5kJ2SrtA5ZaUzVt8E2rmrtxV3w1+PewA9mANJ2rVTokrRErvswfRApuH+JcaXGYaGMGOmQSWN+fS+rmApi8C6nYnsoYzzI9920VsKvAkUzA8RYJWEGagF48sTo7eZWlxhwbFajOiy6YzWaqcuKSsvrOPKOgHbgwB5XAlRwz4JBax67npKHUyjTC04cj3RxzMBKY8t04OiSz3/+rZAZoF8tOueM2ddU2sLik5gSvbXiuD6iRqffZKG1oTpwTadRKBjKVqaUgLmUVTRuD9ej7VldAcT6BIpy3luT23vq9K0ryChtSHO9T2E4E2Qz9QktuRlF31SCwIDCxRX3FIBStNmGnOrwKRNJ+VyXABMI+/zix8/iQTWidceN00CM+ihI6jM46znHxRH/mAenMSW8lmyvC3QzoT2mHUBheZQit6j89sCRdki82k81hxy4nylhy6VZT9R4zNNj6vivLIE8zYBLXa5/jaBEo71xR62mHdG5GACGjUYkJmAmvdCyOcJLZZAdErjDCoPZRxxm/lGfT6QcJSBzLyVJ7+Z4zMBsVZD73isLbB2+0yTzwSUhOO8bg4kTLxV5NSvMAHRw0onf/RMQEiHZWvyCsKersl7KEoZb0v1kBTNHyTcmwAigabQey1ki8yDJQgsBmRWLEhcWgNDpQGFLMfaTnzzDBiPqnpA9nRrzbQytoF6C7Z0C23PmEdBoU4HEZFY9JNmxzJuJEWV08IzrNBjG2ijgJ+SHGs6wfhTPVytdRVcod46LA+apqRodaRE79UxLjm4LypAxImhGYE/Zq0Yl0K/wslLctGswXi9yEBZKYE50bw9VIpA47S7gkBizFe1QhnzrCie6UGy6DDz/ipNeysLPunOKN8EMlNktofQ4KA6rk0tp/vCyNeDLZkPUjnQurJ2fXKTJilPfidgn1GVkh9s01gdx+5aYYEQjA06UMHh6H7qCoMEmh6rNy3JgSwrS6NpYOFnK0hXx3tVJDDPeuSG+Tjce54Wgcb1dA7MY0ZivcS+0cK45JTB9VjdWEhghhXKmfWe2ZJwOWUxH5U1athHVjLv23DGTaAdnbBGIHPKzVieoZkWBHAPXW2pFCwtPSkmFSDTqKHx6iu8iBpb90CIzE2tqcAgJFDCKXEDvAVkbJqmEt+xhggM5JhbDW3RiebdqjYtTWADErBT0o5Ixqal6yH0grFvtBVreN+IWOypPPk96z2jjFcgc4jFNgEZzPGePDlQHCOrqOkaBhF85IRXEDRjaLwRdGjKJFpCoc6UR40w2Ub8kgeyqx4sxxVOu8LomsAL2lsr9oK41Yn1qnugsZnStLtmAshK14CXNo7ClarMiaGZVzA0tNhpUM2jkFgro/sSrbUjv+QUWuBmMItuTbv3YvOZLUnh17ngcAotCEwy7xZWGDidZx6Xgx4wi3bN031j9PbudXDRF60sxa0Zi6YahinMgbDgSJof3OPIvNfJMTz69IsOR4gaNEDrZE7RTRNeMgeKUJpqUQc7waepF2wCNZQ0m3HrVwsI1jABit6+adlD49ZUDVMwL7plTZlEn1ohga6xtTHZ76YhLZHEephK21VuupSl0bvyQLmje8HeCwvwt9E9u+g3dP8N3f+P0H0J3TJGlT6zJfU0IzIzDUlZ5qII1nuY2drYsKgh8rWCPXZzUZmib8xgeRC4ZqC2kdF13CpYg621DA1kPmZMgayECXSmHkuYO3uRH2qYMOwFR3TvI78PCYU4sla1tPTLBET2hxFdE8DbDENnqxtHb0MW0vzqGWHoCISUHSvRRQZ2dICWGay+A0jMPIHedVBtNKTtWmh+jYn9aR9blhU2Fk0W7iVqzIQeZz4t7YTJ9yXuLfibQGfM1zTyzYVsqM+bS6t2nj3Ap+heLhwNTLst3u5pWNI4i1HDKYFAD/lhZoytfWtpaYqj6G2mJmyomQZRLTOHBh53aWbXy2uzYh1nh6inNJHBmkUdaGW+3RNy3KoIQ70XcDWNxYNn3jGRhvbEcG9hq8gK3Nt1W5KmfGasES4R7oI0hYPEa2zdDUcXalEGa3dExqXrLOmePNUS0P3euOlczwR1CuSUUCIM9tsKk9KuDnnthaAy3ESzQ6XRiKS2vRMWouFmjxsefH/SAms1BJQh5rmv0fBIiPMTf37WfqhHC2oza1Vs8YticAn91sE2qgY0KtO4ipGc9qUkouHU4AD9+6729mJMqyuybYtjozp945wWrp41ts+pYzUeZvDfl1C/EOYM7fGycCZgqn4LD8sG3GIWSIVwDgr2eUQeTNXh9ISZwD9AtlCxD3BnEx6qzkEEXdPGcuW7qn6G0iJq3CfuOrRTJ7vlt0HtPwW+DWpHgf/DQe1wIbHxRWmf/RBbKpw2A/9cN/b2ctaa0BuQNPCSNHNaZKVN7xCWOrLJ4e2QF5xkKHUyI+YQV/PgwdocrtgkHEo1pWnT4CxBn1m2VNkZB9lLmO9hKOsFrVDbyJ3XcEF6cAM6jA/lzAIr3EHiRxLqULT54qJW7DIWHmawvxY+yKya8I6XIEI7vxiy6soHlc4T4GEQwC/MkWf2UOTMV1e7ZMIv86iypzax1MSmFExvM0MVrrTmjCPmfm9RnJMfe2nhzp+7H19p1cZQYW6+qju7cRHLVhWbm2XgEHt4msgjBgtIdWSZiO5o1KaZLfPUu7m0TDVmNtYWnibiyzg9cJcbGeEeLr5kfr7JG7tfdd3UiXtp2hS8r90DRjLDIIEWnhjxZMeXFWTeo3AVXEOZamEPZ95TqBn4AlJNIbDyjXCr66Th4VGMBMKLIZ6AyUGD4hxmkR5igp4IDJ3Fa7pprM6rTmPYsRJ87iHueYuc3xmSSeh7x/vtTbeA85iUa7Ek7vzaRtd3JArPDvkgXLgjSIzwCO+qVH6dzPtIMgTZ0Ph6gDJ1YUul10BkTH7aIlDIlZ/G8xeqpEqv+EDUWIob/MED4kbDOJPXDGB83kAJp0SfNIMevO6hC0jhQl7j2z6mOKGQG/tDD5fOG/fCvMeZ9ZPQlmooWPlSYd/h3m9nUq9qqHR0Q7a0wgTuxGJvhj5Se6HpHTTNVy9XbMQWdCAT0GspnHbnCoNrfBfH231hNI6i95jKWvm7cWTe643XmOidobHDbR/+pFnCDBc3DGZTBrdxu3qGNw3N44gIMD3EERSC6vcbgQ8kMbUYV9cS647Fn62gWfQFbR0m3Sxq4PuYTWcaW8UycaZAEQ28PuqvkgaPI02P8FpA5zm0kRTbu8fBsfZwM8Cf9yOBHu7XVTSNHh825VPyh4nkCmziSbfw7OjgYaMWxiztk4iJ7vG92BcJZWjT0J/YpBelQhewv+j6hBelOl8liFHDPpJOaRYNAi9mfE1NUvi9GJ0eI7QOO7+71TQYj429W2/9xTc+SdPhpv395dKnIFFMY3JCKRpmRsfBNctAusJAltL1EPZAPK59sTrQRMxnh6hD8v0cA3uWgfSmDD87usKd2cGPMKzbMN+DtZLH7fLGm7d0rDuHp1PHSTe//UkrCGxEZP6+QbBWiq1zhhtLixFZGGYYDQs/g3B6jTdjib/CizheqIEDrTj52fE6xA68Ri/YPN1FWXWL51Rw7KIwtCfsI+6qtKAndhJo+m5v23hKO+Alp0aoNxNvBmxMu3uGtuBG5mQvnThsG8mcvbWO6wmz6L49TPEgQHhph+mkzg70MIv0YExUge+tdZlbHzjE17/I/1rAfnH/DwB++vDLL1/+/4DHv9f/MMD+6Mt/NlC//y8=);lineShape=1;strokeColor=#FFFFFF;flipH=1;" vertex="1" parent="S1POpZvNvTF6GCCWDh-q-65">
          <mxGeometry x="-7.815970093361102e-14" width="8.107002177921423" height="12.807983639204263" as="geometry" />
        </mxCell>
        <mxCell id="S1POpZvNvTF6GCCWDh-q-66" value="" style="shape=stencil(3VfLchpBDPwarqrRaJ5nx/kPVxkHKgRcmLz+PiKbwUhZeuNDcshtWdSrUav1mJXcvWwenterGF5Ox8PH9dft42mzknerGLf7zfq4PenTSu5Xcvd0OK4/HA+f94/T7+eHs+X56dPhy/kL3yZcixTTGRXD9+kNd2r555v3E2C33V8DMlUxAKnUEwA0kmwAJROH24AePKBWKtgDW0ATSsDD+W8HaFQBoBbK0QC6UAQslUq1WkAZb2YBWQFsAZ0CAKRC3R6JQ6AAgpBCQbyLX2HNAmKm4oLQRICouXhee6KMEkGtW/sAadW8WbGqGhnYB0qWo9rheS4EXuyFioAkULHnTyp2YK9CtRlIGi+wV0LZOhAhBqWgHoLNQKzUGEQQPaUaVO1QqK16ACq2Gn3DiGXQdqvDOBUJQw8qsmrTJkpDAYDuyzll6kBHCkjWQ04UkYdEUmzTi8Sg1lqibuu/LLSkOEK80qqATGvi2Ga6KtGowzBVVz0JsqRSSzaGytRA0Jy9h1JIgDRUezbm3GH9pNGuLvYMR0/xxaDlgYYhCwULkAwbgHaw6uqzj2k33/GUUxuyduWM0hw9p8oC4khHVc/eAxy3TDn5GDLIWo9jkl2xVIDyevMdIMlYU+bzEH7r3JppRNMNxF9fS5C6/81a0ixgeS1xHpbXEtvt/2QtSd7F0lrigvgf1hIg1reuJWF87WqWCGBUh5X9vq4liB+h5iZ6XPi+i5crLOc6ZuvFXr/fQIJ1ttoGo/MfzR1NsFWQnhB1bRW1FYTOtTdt2mEwPM+PDuLm7FHJ5MuK9mrfUYsXnwAZB5znP/g5q3so4F/7kKtIDmNxnS8w1ZetSE7UUC998zV1GaAPr7fip+1uN12qr//3t2h9Nd3A5f4H);lineShape=1;strokeColor=#FFFFFF;" vertex="1" parent="S1POpZvNvTF6GCCWDh-q-69">
          <mxGeometry x="6.372735719168361" y="20.728527909695742" width="1.409338991978136" height="2.6199530713720276" as="geometry" />
        </mxCell>
        <mxCell id="S1POpZvNvTF6GCCWDh-q-67" value="" style="shape=stencil(lVrZchw3DPyafUXxPp4d5z9cZTlSRbFcspzj79PMhqNhz05v+U1eE8MBATQazbnED98fP317uAT3/e315feHv54+vz1e4i+XEJ6+Pj68Pr3hr0v8eIkfvry8Pvz2+vLj6+frv799GivHX3+8/Dme8PfVrjeLeVgF98/1l+Ssxf9++fVq8Pz0dW9QLPTVIJhPwiBaiqtB1gbOclsN2nzETYPWzK0G2ZsTOzS8gFsNojUnDLzVtBoUi+3coHY+pYyXFD7UYsWvBt2qMohWwmJQvKUiDJwlMojm+7lBqeZWH0qyLnbA80pZDYo81uJmImwGbT7ipgFOvayRHl4JHxDXuO5Qw4zMbQPHTtdkLp8bpGJ9Te+arSkDpBrtUK2IU0rewpoayC4vTilW66tB0zUdsyUyQC6J9I7eemOnu3A64tRXmEGko3A6ppmbu2yNaodjATXrVRh0K2vg8p1I+xnXzcBZETCT4MNacala9DKXQl0NkizR1C2uO8CrLgKXw0ShzQBAJk4JZ5LJQKMGSrSRAUpURBo4l1cfQjUvfADO1TX5QrIQhAHiSjugPyhcwpmsyeerZQWVbWb/ZrBV+W0w9tzjvJNODxRa07tYFamEfhLWDeI8hNvrAVrrGXVZ0MCsTB5nCd3YIKzNwTeJkwDqtkI3olbUmaIa1+pBXqgWWhozE2ReVgaFeQNy24nqAWZRqgIIi87tvDoNbFavhOqh5hDhlThW1Gcl/uYniJwiADHEaF0ZHLAeuFbEKQHF+JU2bL5tgDAR1gdLCokPyZfzZEO3DYJ1InxNN2k3c3NPx0SBjjCtuYRk6bpJd+JvZYLIbYPIDe4dps66eiAqs/1y0yC0Sb42AyS8iHTIVlcfgFOKv4XAVAbcR7XQ4CZx2VGZKk4JyN7WODQkvAAyn5hotCqJhvfMrjoqTkHlZNnb+ix7Q5q9aVsPfqgyiScHrFcFHWbm79eLWvCTFe3WO/H+jhlDrxMFT9YTS8L5qOp3s9lv66Ns/1hP5+8kG3YTcLeEaHLA9eYpgYosM5DtNb7I0C6eH5icY72EohvPrwrrGIgwT6sSAzGg87nTZpk2ty5R5UB1ephwf/Z8qkf4q1om42gvsuCTNXqfJs8zMnlEvVQd37W+vHMyof2NDVTBeNZT4IAXAHFQFnBAakZwc87aFWT7qQL2sgk4TggUpGLjAKC14FGQTTzfswqBAlCiws+uzyyLYH4viuxzAxiKgkhozBo0yVbNPTDN8LzvJGn0hfs2yEpXR7Rl5E5sCqophdlDd4TLKSqROMqgdArWcazEY3ORZTBGJiKNUcYthoNK6CVyxcStNTUJXbFOJrDj4l5hUZ9ywI7tRyVBeBb9QIWVspMSt9fxkoq8F+6vQxxSfKhx8g1mK3YYp77GYTBbETjElSpuMFslo2QW/YD6Xu3QOHBAKaV/FcdC/tAsVNcMjEpe04qSWUbxQe9QZyLsNAXhc+mc3duseqYQcCZJXloTExEviwcoSlOjbrMYTWja15oOJhMaPTb97/Z6x0qZzzIA9TBjAma98rhMOWPLOgzWaofIEyB8UFwffYMLoUsha+jEJKHEictnIg2xi1ikD5i7M6VRv3dtQfgy5AIlcTZ+pYHCijFnvm8amKYuRuK8EdgpIuqUsuP2iT1Vg051QuiWrE4KTSlzLr3fD51qLmRQ5LGi0ZAcN2RV3Q2pV93hPcgcYs5Dc1EdvfPsDtQMyofAasK7Znh2rARiAHLFe5A5jY5148dn+h3NX8hfNY8PLY3uX4sUXsfNDBGlNF/yrFeRUpuDvOfAqZPTWbND9J6w5lLqkqPXA/9M+hpvCODErLL0oR6u8UCd1A0v+glztyBvqYcuQE47OVhhcKfUiFrq6G72m52erUAAo3s+wL2aVXueb7wje1nEoVe+3BkXVCL5+iEOMIjqlRrPwzBQqAGDfrhXUGDcj/d+XlYcDAg1MHuotgsD6tOIg7qu2WkQu1CrUWOoiLSF/qhivNNhcvhfyjz1+nA5opQVGIQDFVD3NYgcaZejglTkGn+QcO97m/sf6OCP9897vjw9P1+/Dtr/P38OhJ+unxLFj/8C);lineShape=1;strokeColor=#FFFFFF;" vertex="1" parent="S1POpZvNvTF6GCCWDh-q-69">
          <mxGeometry x="56.1857725291033" y="54.30543590565668" width="13.191439127529428" height="5.322080505958555" as="geometry" />
        </mxCell>
        <mxCell id="S1POpZvNvTF6GCCWDh-q-68" value="" style="shape=stencil(lVhJchsxDHyNriiS4HrO8o9UxY5VceyU42y/T09k0gI06lRu8phN7GADB33z7e7D15tDCt+enx4/3/w8fny+O+jbQ0rHh7ubp+Mzfh303UHf3D4+3Xx6evz+8PH099cP28nt15fHH9sNv044Fc0bKIXfpw9Bcv374f3p+P3x4ex4lqrmeJTcrx9vkuztKn1cPz6k29srVSYmqfb6Lj2Q80VKstoHqZEAuqgzN0kk9sIdL/9eAJWmBACHOJWKaCKAKmVYwPqyDxiixQKaDCJBowwHQFyI0ZolW5USvERU0ibBGo28akwCbLBuRWa9hH4/TaO0ZhMvSCORziqjWoBON+wDqkRrA6yKxK25S7I25CCR2FCClGgBOv22D0i+OKFkIG4tWYaTMCQQo0ubuTkBkEltQObYCi1Ib1LSNc2CXIAuhdhQy8yc1TMirbjapQULyNPR+z0MJlqVKpKPeKlBJVsPLchgXXJIsYFrWRIpoK6SrQ0NKjFAn3FdnTJKJa1yIPlsPUBmJW4dRYI1uqP5M0CT5lRaVb4P6PO+M0AjcRhIZtsEYNVLW7gGqDaXBm9kAAwHQD8n6b0BrNHwWyU1valkIw2/JSah+0aGLzRw3QcOMgvzUvOAGIIElkxoQ9WLoG4qvuQAiEyn7GnMZhZTST3VgJKMyQDguAZkNmaD+sY0ePvGfS6/B8gVy+98EeogiXQyuLVblVBBmeVG9Q8EALQgFrU4AxRmdPf8BzbQLjD8qwgvVQ5wNiAOrLmeZfNZkQbmpuFbGRzXyLMIQHISOo9c9w0fVygDtBnYMwBjfVv6X0gYrOSK5IsaZWz9/wHJ80ooycYHvDjDNXyl2dcXGTlPJmJ0x3Tk8rvTom51lvACZOlEAthGdRIiHWrqRQW1PvnHNcbk+gwIyyC5VC8IUMPUSFTaKJsDBFpAIIVuqKl1Esd9gM5yWYDV0K+Radf6aqASQNeLrQeQX8YrwbXdrAh6zd7RnKdPFiDOCrk21FTrJSjJ+L2uh3wBCn0VMcI4ozeZRCVFLrk5a/ltH6B+9MMVhTxy29xmVdI0n739ebdf7BzAZUmkU/FjE64oTELyJG7bcxAvpeALCDIZicOEnq1btz0NiXTM3ksp0jhsewwLwJDPjB5+HoCOSrxaPRGAipnVm+e5Mc5Wu+9TUTdu0DSKk7asjjSn8d3jYT7fr4soNmkEv54A4SW2Ih1c4dP0uaAjmXZfHLfJhtQhbWgtIVbm0Ec5eJoQ6SIm+D1MoFuV6J+mQPlp9GEKM6uv5Ewa7jjrhsmPCIEueNTv2fgm9Z+LV/x4XdreHu/vTzvf8//7JS8+nRbE+u4P);lineShape=1;strokeColor=#FFFFFF;" vertex="1" parent="S1POpZvNvTF6GCCWDh-q-69">
          <mxGeometry x="53.35952577757453" y="53.963958002089896" width="11.706152888197435" height="6.888489262088323" as="geometry" />
        </mxCell>
        <mxCell id="S1POpZvNvTF6GCCWDh-q-80" value="" style="group" vertex="1" connectable="0" parent="1">
          <mxGeometry x="500" y="111.24412477723001" width="120" height="107.27587522276997" as="geometry" />
        </mxCell>
        <mxCell id="S1POpZvNvTF6GCCWDh-q-76" value="" style="group" vertex="1" connectable="0" parent="S1POpZvNvTF6GCCWDh-q-80">
          <mxGeometry width="120" height="107.27587522276997" as="geometry" />
        </mxCell>
        <mxCell id="S1POpZvNvTF6GCCWDh-q-70" value="" style="rounded=1;whiteSpace=wrap;html=1;strokeColor=#FFFFFF;strokeWidth=9;fillColor=#FFFFFF;" vertex="1" parent="S1POpZvNvTF6GCCWDh-q-76">
          <mxGeometry y="17.27587522276997" width="120" height="90" as="geometry" />
        </mxCell>
        <mxCell id="S1POpZvNvTF6GCCWDh-q-71" value="" style="shape=stencil(lVrZchs3EPwavqJwA/PsOP/hKsuRKorkkpXr79MIC0uil9u03iRyBou5e3p5Sp9+PH75/nCK/sf72+vvD38/fX1/PKVfTjE+vTw+vD29469T+nxKn769vj389vb658vX8//fvwzJ8dcfr3+NE/4563lX+lCK/t/zB627VP7/5Nez/PPTy5V8cNFW+eqKP5aPruRVPrmYj+WT62mRr+ZaO5YvLoRVvjrfj+WrS36Vj9Le5lJd5Et3JRzL49u4ymcXxf3N1bbKe5fE/YN3fXVori4Lh4bgbLUgxxnz2wrJhdWE1F0WJgRYuMYgZX0lBG1NouTnEbcVENNVAXHPSSrYmtZI9FaFQmMv4YigvGTOr0bD0d1EIcDE1a260FBpjTLDmZJPLlPmuaDk8fVaCdmZun91tbC88Ogwr5F8U+ebM5bPQj7BP1QIzossTYk7UZoH3JYvLlaSL8LeVF1vLK/OR6cwlhcpndEX+P5SHnX/Ifnkqv+IPCowfMDe3JxPLC/yM3eOLy4o/I++Wfg+JnpKiTzJ8vzgtjzSi/NN3qe41knehH9Km+641K8Xg7UYT6Y8H3h78IXZzy7ySdiLuWicz13Eq8IdnM+qp2NOx/X8KPOh9umOreFqe82VRvI+Hsu3MHHJlPezgd2Wh388yat4tcz14l1Q52/t/nL/KvKnNZe5n2cFbFBf67xoGtj46b7tPnqk9sCwAEBBDe0eZ8PfFPoEO7cV0BFoyicJ/np2fbUBU81E0HrdNa0w28BtheYiKRRXldF9V8YACsoGm9hqU9CNyDw39mzSBgvzvK0TJTlaLbJb0cyaqDVLDM8GClc2FI4D2oeqBqsMYpuf/ey2QmN4hgKsIjWscz8dFaJsMAaxSEdVQFBoawEhWbJyqzGINV2iQ2G1AZGJommMK602IDJVK1BXgqObdivtNzhCAfERB2MFNWhxgeJ3CupKdQ6+KwUZaSyZgY0uKnCFsZrp/QZfN4p0mvvIkUKnK3nZ7m1bo6+ST81zKJS1RNE8k7KhcYn2Irs3FPoaOBSQ2mSRGrmzgtrRRqp5vpLsGsYgvt/pfMaoAf1crXXBe8Y9aLd3ukCnos7zk0MjKL+b7vfGUBieln2mM/YxzeqMJrEm05UfjjR85UdIN1VOjtFJdBtgq6tEcB9XKEx+jcipK2XuGyObVIInBvVIcOmlyFfClFN4BuChrenaYLRS8HOQbwph9qojAESLXm0uCRv6jokA2lDZhxoORL30SRsewcSw2oBtUZE7feNarjBZVahvW2Y3hY2fOALTBO+BK7vyUtjt/21yq0cLQVqfkOKs2tsbB7rrWqKDLRVGt93KN3ZctWNVhidYmtSSC4xHqYGVQ26JO+QaiuQ6sSbyE4omnD3zBlBQgas7XBmq3qTbnMubQpNXqoXdeqFLj7gAmqNwq4LrKEhKvmCSvayB4UnY9v0juqRUVjDh1rJPPi+vVCoPuUH5KgYnMyN5h0IoqK/CNkgOKuxIapOtEl0o7eLgFUvXeFdEpE3RhnWed60g2gy2W5rT954QGRvfUwhzQP2kQtpTS3cUgFz3VxJxSHUW5M8qZMb3Q0HT4WGXSwrfp8Dpfafixqut9Ql30js2HoqjgNQrhso7++Ds1DuGWxWn3rbFyBs1FFTFxR13Ml4zCLeO86hrdNlm4HUCWBi7apMbJBoR4xreo7nTvosKke/zKr+qAjhR70ow0WjjGPBHBC5k3qiLdmtIzFYOSkopBB67GDGKPw2ecwljUrV726HQLje/zpgSUEKRCJVJOIAbRdgX7quAW2pNzEzBATEqdjbym+1+560wI9xBvqqI8d4Aefmamt+fQV7mHG9vvUqqy/PYGfyHsNczDYVVTC17Gy18TZfI85leyfOTA3mqmK7J9B0vgXxQu6fnwY8FQg1+z0sY9gctTyOzaZr7o798uS+PPy4/s/n29Px8/pXO9ff8sxx8dP5JT/r8Hw==);lineShape=1;strokeColor=#FFFFFF;" vertex="1" parent="S1POpZvNvTF6GCCWDh-q-76">
          <mxGeometry x="28.379892063255966" y="0.19435161137312207" width="64.32611317349516" height="17.675810178243584" as="geometry" />
        </mxCell>
        <mxCell id="S1POpZvNvTF6GCCWDh-q-72" value="" style="shape=stencil(lVnbchw5CP2aeaUkgZD0nMt/pCpOPBWvnXKcZPfvF+2U5BaaORu/jdvQEnCAA33idz/uP32/O6Xw4+X56dvd7/Pnl/sTvz+ldH68v3s+v9ivE3848bsvT893X5+ffj5+vvz9/VOX7L/+evrV3/D3Ra8Vktq1Uvjn8kQzVfnvyceLwsP58aiglGVVEKoZKDBVXRUaBQYKgdp6pRIp6G2FWikGr6DAhpopuhMCVXClmojLWxRKI12NLkIhghMicVwUuFABCnZCWU+IgUKCNqizgRK6UabcFvlMEmAUeJWPVCsIc6TEi7zdH7y/CcXo3h8QUIsPMht0gcGG7LBeqCSqwKOGbGdxDQMnt5AtTiFSa8CnhXS9UkciCpr4IJtCBtlpFyjbCQVcqdRRHqYCwzgUHcA/KCRwpcIDlwcFQckWKAevoABKWjajeWTTdYVZ4qZCpgagoYmiU7AzQTbk5iuMKTQQ6ay+wlgCovzJZqJsCsDoHMaNDwoRnCBl85IpgMCJUONNAVxJEqW0KQC0ciPZrpRA4HqN2NyaQE6ztbfiFRgYzZHiFgcG0Ej1ig0CbLBCvUcanmB1ztWlQgG41Up13BQY5HTcaIbVwgDcGsW3t84jAPiiVdI1Dg1fqVFcodQsHYCTlFLz8g3UPfbYjgE3OOvP1RuAiFUchX3K2xNgQPDvt9qP3h88To23KQjZtG7yBSUGMA0jr4a8WOEH/gneoZZJCkAaPajNww34hwcgZ8AKbM5CLF4+AUAYn1rfbxZVUOGtwK8ATbiwFM9GrPghyllGPs14TS7wZ/I2KUTUxwddnHSqQEKoG9epg4He8qfLFx2IvRUvly9GocH9eZSDgzwiOlaAVnuNsaIiuuHZOIWAeFm+uKGFIQfZ8lEx3rZ8t34uoBkHTzU5UwLy0Q+OPYK4HroBp+FeP7xxyEdUb98qL55ldnlEfP1EFzPswn1+2xQQoKMxdWcB4whMgE2IQjIUJ32bEIIZ3yG9vl9gRbQQqIPc6FHX5ZVklce7im6eennUATbWjlk+i99UZNxhNoKsEEGypZhCimIN1JFXHTPzdfk5EB/kEV9v3v8K6XpO49+v8qjDZxkN9yCPOurekiDjsAK42YsqrrJv8RmPierHE4ZEXZun0Qw3Y8VaTHbyqCIWGSukV3m0n7AG7fDDg7NcXx6EjXJAjt4H/1VeIP6r+nwUOIvVNuD1Kp+B/1saDXq2YMiA2tw4HShrQzurOM6fPTvDnmqUp0avgEpK30O4RWMde6+bMWCvgGi0BTluJ6AqZChyUe5EBTXK7Jmf5LEou3WCuomYIsZp9nUarj4tbYuTR8zbcMputMJB22ZPa+VoYW04cks3a+UZ4Miop8vkqLB0tS1o1vwFrW+r39L1cQYtP6svRsbwBA3ozQOvhw15qVFecWQEADFwU3D9g5kKsqH5bOszFtpKhI2Fi0Bs9yMch2pwEdinGDfHyWgTtxRc1e7LR3RC9TRHE5ycTMH32QxXja1uswpmLm//bPX/Cvbj9SvZl/PDw+Uj2/H//quaPbp8keMP/wI=);lineShape=1;strokeColor=#FFFFFF;" vertex="1" parent="S1POpZvNvTF6GCCWDh-q-76">
          <mxGeometry x="41.16500627476859" width="35.86275802039597" height="3.3954751248413837" as="geometry" />
        </mxCell>
        <mxCell id="S1POpZvNvTF6GCCWDh-q-73" value="" style="shape=stencil(7VlJThxBEHzNXFO1L2cv/0AyNiNjsDDefu9ojauhonsCI9kncxuGjJ7KzIhcqg/x1Zeri8+Xh+C+3N/dfrz8fnx3f3WIrw8hHG+uLu+O9/h0iG8O8dX727vLD3e3X2/enf7+fLFYLp8+3X5bnvDjhOvJUlhQwf08fePj+ObtCXB9vHkM8BYaA0I6D2jFXJ4BdXyzD8Dz+gQIzor6hWCuzABvuQrA+rwVEMy384DazUcGqCjVasUxIIgj1WI+sw+1CECyVjhK3QtAtObnPHT9C5HD6pvFLgCBw+qLNeV0sDxn2ueR+3OATj5Eq4JL8CETW4PFKMP6mzkrwJtXmW7mZmpkS5p7nGiZheYtkkAtazHU+flPiCdZTGTvBY0WOXuyd07YQwmF7KOyh9SIE/L53Vn2FE9VXVC/8hwf1Dv1/DCq27BP1kW+YJ9nf4sVdZ4w6DLsITLBH5y/E6PdyMg5gCcCeUtCZMiYm2sXZJxVyqL52YUlB0r33fJ8pFAHy/cBeRxgTRpkrAo2nCZAlZWlFOszLVIYQt0HoNjNuk9VVvjcrMxEzfBB/EJOgwgrAFES1MuOpVN0W0vZ2sztgtyLPCQ/DjAACHQX5TQWjhIanSrYcSPPpvUPeaXZh5algJZWP5MPJSQJHzCuUEXtugQsE9ScuI7cC/JBwXVOXO/jm316Ww9s3xWVuOfAXpF7bUmrfZUlww/WrPZ5DEy79o7V2XVX3tijS6gcb86DrpVFxuAv1eBkQZBuE090XdWUN/kCqZUKQIjmGKCGuy3lUJRVV8CgRW0ZLislQwXsMzihVFA5qNCZKl8AJGJplKMC2hK1ZtCuK5oiq8TrZl7kDZ2yboSWRYFs1rg56/EI01R6zg9EboSLBypt3GmXEImWgBR5zoHqm45nhSXJgtkYRkkJmkVho/w0tLTfoQZj/lAHz7dPc3yaHt8771DYF7zidBzhWwFxdPV9QGNdFt1sQCFKcUmy2YDUngA6x3Ez0mZUG0E6TAlUH7OXQzzmEHI6FVlbMOmUucMuo4xwOvWxua4DZJFTAqY1PysZo0xVgMZSRjFQ1atE3jShDuVDWaX16OYlq23Zby6DguybmMvpmqPKvrwsv3Tx8rL80vJL/eOfL7+KQf/l8ksbDiYlSbnd20qh+5fbyhGll9vKv3FbSU4/cVuZNwXVjf357FUN3VrIEz0s3w8VScVoWwGCrNgYXylEUW5qvXBHiFL/WHTbHKAkr7Iwfle6BhorwL595xaLeVydH3MIzYOD52c2x81E3nQCOitTLyCLAyQbJ4e7JUIbjlblcuUTLVOI4BxyTNsydKbaOEhEt1JPvfR69luypwH48PBS7v3x+vr0Tu/x//klHr46vQCMb34B);lineShape=1;strokeColor=#FFFFFF;" vertex="1" parent="S1POpZvNvTF6GCCWDh-q-76">
          <mxGeometry x="28.123972261010408" y="0.6615571261351079" width="15.5980144134793" height="15.16433400029826" as="geometry" />
        </mxCell>
        <mxCell id="S1POpZvNvTF6GCCWDh-q-74" value="" style="shape=stencil(7Z3Jjh3HEUW/httC5Zy5lq3/IKCWSEhmE03Kw987wnS94cZ7p6idAWtHdld0VWbGeGPId+WHLx/ef355l/cvX99ef335x8efvn54V/7yLuePnz68vH38av96V/76rvzw8+vbyy9vr79/+unb/z+/9yf9X397/bv/hX9+o+trW82p8v6vbz/J+7bWf37y4zeC3z5+uiVogaBsfQJB2la5J2j4hja2lu4J5pbhDS1v/Z6g7Nsczwnq2Oq4JyjbTEBgb9jvCfo283OCMrd6v+iytgyLLm2b9Y6gpi1VICjbfv9J9pG0BtuTNO8J6pb7c4Js53C/htq2Cmuwc035nqBvFdaQ87buz8FOhhad07YHggaflGbYpbFNIrBzmEpQgflS3dI981XmpVQO7r+wRkLWsE9a92uwjUYCW2JXmU68S8IaeaHEpb6lIED5ZNH3bzCG7/RJWXmpVGSNlLYiaibzSeet3h+cbXSlNdRt3J+DrWoHJWC7NO53yT7yv+z4mGAdnHMQzGOfn4lDv9+kvnWS6LK1+w9qyBf26y5abJsFNca4V2KZv2cpo6ZtkJJMantMchrqSOE623/4fuPJVeX5RCp1qNJOW4XzNRvQlzxP+2mapIjkbwPE0tTtvN+fsg34+20/pPyiu7YGMtbKoc5v+AcEoHX9++0wi4+fn8fn3jwP+993XW/bdvJdyqHKr+slNWe+ThNVfRzI4+cvtuV6XomeX5HfdpCXkVRe9q0A/496/Lnr86R/hqn1Is/T9495qOTr87Sf034tChH5Z5qKFnk3gSeCpH6anRgRjHUI7IVgoI9jWyQq1JRYBR1tZ5DFddzRetshl6EEE065Tz3lwrvU61amElR6g51DVgJSFCaYYlvLxVQ9k/xSAwGpIlMtgYA8wVaDQ5HQsbOoYg8EhaIKk+Z4DqSuh5qzk4Mz/R4/KYOAmoevflpCn7/uh8G+PQc2gUXWkI+TeUxQD5N94zqSF1WSiqgHa+S1TPWi7J2D3JCugU5pyEtmNrqsoaMAmR3QcNCEFrbVFKkoMjuZBG8wF75L/Gi7RL7mUFtoa9jpDUu9WSNYwN62aPFe3F+iRbdDqdzsUuUItXYlGOQwL9Xe5pLtQGDMJx6eERT4pHKJqW8ISPM5kJCUgJxC+3UNn7RIL+WDc254iSTOtIYEnP4GkAdTZD1s64RdMsczwiOdPMOinskJntJa4NbJnxQt0ETnyp1PUcYDvXPzPtUTGBjemfupMNVFUz3zPzVeawiEmQOqB9cOKOCZc6JAWEUrOlpwTljdj6EAjBt2UGTzgm3c+Es7eaH5CBJu8MUJJmuaTAu0MNgN7QpTeSADzDebQp62rQtU5bRIXrbVtC0TSCjs8Ahta1O9lC/b8JjAvJms20oma+2KnJ14lSsHgoYnvcoBJ9xgpMStRiC+hvmZFNGvpGa3M2w7L2rrQpDROTFeGvfa2/QIgTbGrSJATgBKwORhJSUg58QkbkxdA6HhFieKYTeCTkFTP+TrhoBYYxRlvs4n7YosrAFDmqUxkB8cgQ3j2MSbbSWt4WHZUoJB8EeE/yqGA46vVCWgczArKoCD2aSdESLB242AYqAWshJu9cg5GRpaOgFFWTUIUMOTNh0hKEVv6JxcvaMbAjq4EmycEZAydjMe3jBh0WY+JFL0vB07uuL+dA4H3GbGN3CU1QNrIDpcj0285SWOssQoOnvDtnqUJSd90SPPoixJAbhMA2ukfqBJt7qVoqy6tawEid5giw72IcNJpz2YrMbejKIUnZNDUz2NdpJMCkk901Pk26dyOIQ3b8C8SlPAqzFoZ8GxSIMRLDoFiwrl2HaMEz1zUZRgwCnkol5r50R9DhllsxeFcRPl1XSozsc6Y1fAq2eGcoqeQ8/Iq+WiFm+tNKniGXS3EZB1SEFRZnTVzTpIOYOvgZI40R9LyEuexRlKQIuuM3xSwnNo6dBB38mtrag/ZvLQiKApumQyTcq+DXXV/Sec+5E1mKtOvsz1mC4E7dC1T/2xe/vTKu6SWUx9A2fFe7ChLWEtzYiqckfgcWR1TerCFNxoqmaMuyjcsHhd0aWBBmssNVjG8BQnelIn1KHQwVmsK9tqBKRmZsj7Vk5Ueqy7lICwUAv7xIGzRZOnsQJIYedAythCV9EaxksNmG8F3eqYGbD3Cohx58TUmoojdl502ncNHzwShJNb6zCaB8E82deh37QqJjhsm+QNtqxE21TU7tpHkglaSVXfzT484yaBi9bCahrjV1GWa6INmlUj9jUxNW1CKiDCYnBzLDVaq2PGzxTN6EpAbqKpMkmkGgGm17NixutSevWYINig1TD/0IealMUxkNkgCWkWp6bcZQtrwJqOdZTE3BKAQJiZFZjCCRi7n2GX0HlI6iY6ATlxS50431bKi3YVuTOCqnnRk0XXEIsaASGJddegZnFxlrm6qgQqqr4SSheMoJH3HQrejIBMe8mqvk0ZEiqdQ/nF4oAgd8X5FqfMc1XUYXEtpKdq73dpcviadw2b5sSTjqlaU8+DCLoqMjdyFL5WxSqNAEsbs6Jw81Lm/QxEEK/PCEh7T3Vc7Xn0pQ9g/+Z5BO00CWR7WoAvqgKbo2Nuuqs4D476poKOg8NKL2yqSkAblIKb4dVhdGRd88ZmvijtZXyq4f3CAhiv5hICLqbKob6xcwFiDrXTvTCmUbW0o3OVfG7KeE5An9S0+eBaZfhMhSmQU1H8c8QQO0LkRqCoyeRt7bqtxhqLCII/OU4XLaCgyRsWwHTNMY3JJ921FmTuiPH5OYgazhiH5qY6YJ5Yt2CsXMkQKDjVy7BzwALnpAI0dszfexF9kOmTEmeVh8E11CvkmAomB81TUiBnYTKkVq0FaQ1PuoaTblxSYKG2ENSBzNdCDYIjDuREZ00/GgGVFrcaUJOGeqkNRUJPYBbbdV1DxXoWI9D8TEUb1+bhxX+nIjMCBWc71rO0UBBmBBQYtyCiJ4m1Fqyomyw6uB6w1sylsE3j3M5V3i1Uqds2UAVZC4qscahhv5Y82bXl7hmBoAHeasBBpZTNVS4eMQJhPmPvRgRDwdmTbjYPjEVEWZFZ6K2tYxnbLzxbf898lftZjJmL7NJ+VKI+BZhDrSClskdSv9ULfAkCqaGCrHAFWdceGC8Tgm0dgb2vjYnfCWGbIcY3hESzuY2UpB1VY/XMGRojkKAyTa6YqYp5m/tOAmQE4qx7yx3hb01jRAsCC+FvTZs1LWY5a5UI3RukKj2VsIdPojUMRTRSPS0uXGFb6Q3BE/CDI/aeWvWTuS9hhMRXruiRGYEcnLM3wZrBxrkAEXt3rel3EWWJE9DR3oDs3TTa9eoQ2taqKR2P4FkvCfM5sMME4jp4wTvLtFjRNM60xhSZrgj+jqatEomDVz8H6Xc8yScGg5K4RsB5qSgBVSH8cYKpVtThL65GFADbBxJw5kGUwEnz8gil4WanCU4bsZl/YtA0skKC5u9ngvmXcqv5yuTz9dCLfFINYlGbOuvliOyeuT85lGtRN+af4cD/cDiAZaT/l+FAV5zPPgnXMNU5sfiBQDU7V/GMjYDW4Lk+kbjEn7S0X7d3THv5LgX0JzO3imF3uIhEtITCuc4CFAu2uMelrlBhzAUqsYt+sAvnOInApw1Lwy0ulFkVZsQo5+o9X5JuqVz/GwRoMrd6V47kK/cjC/sYqwzdrisx3jrCG7ifNmL3k2uXcmgXt23FeRVZLdDYufHzz/zDd9jpP/MPB/P98fwDn/SD/AMdXFN8yQjI/TH2lh752bEIM+/qSpuIYnn71ISFKQFyElNY9OIZKCmH0o6KTWJpV4k7qaMYDyo7sHj2Qc0PHpuK2yroIe4aVk5O08Yau4kmOqne9pQRNauEFBOXzbbglGTk0vGgN6yAll9qCr1xi8otktY2XDt3HxMUPWEPlWhHg2Bee78eE4RkTmcXPS3NJHbGD3MKZuRkFFtRhLKzh+H9CLLoxenTqcMrxo6uYQntPCNxH1bRkHWczNBrWmRrdod4yVvC7xc9Kld1LUUCHGciXzJURzsUTJUyRVOPg3OVNUSgg8cy+VyTpAQYjIUmwNE4oAzzGJ0AdKQnuCIBRz5xl7BbYNcirZNd8r6uGs6Bwr0WygkaKu4eywkqhkojjFrxPATlBKraTodRecJU5NZMxnYFa8UCNJNOWRgVA5kZz6Fi9DabxunjpLs/jFccHZ0eC70E4vdcChWph5bV0RHN8EJOcaAnOm4rtBkO9iVXmGAzeO6V7ZICXTyxw2saxQINJghpuz6wENkccm3GHKiXPIwPa6AwwyeopbBokriuiqxzd0GcATcYa/DCRjm4hKWUXnIk3Jq50X0EASoYKvWApw9GWXvR4RWu7hlKU1XZubxmaY36iQC1GLIuTNu1qoVUPj6PcNys7D1P4MBdgzEfjUJ19jNU/fIQkRoGoXjISt2V9QEBviGrPMyK21pj5XJFO12mTuyYFT2BEuyDv4F8vqLae/KolRLmXvp4Fy4s1Apy9ltzU2jZCGiX4ijnyX3rOSkMNTMXta8HzEf9ahY0SSA6ecRHaqGIPKPm8/IEqVJPeA6h52kyBBoGBJoKoJCpB008sNwnlKV4az8osaCSGmdZusZXPiORGttCLyl7uGHwhheTcpW9wIDedsPjGHSkOaN6qT8Ytkb2Oc2wRzvuUY5DexNPDggdLT4pngdv6Jjcgh5x7qHhtqK59RkRoeEW65bDUFTvAabAOwxAqdxpF0eseNxLtddDsQCvyD0ZExNqfmnIlw+iCeJA6sUTUSGpiaMGhiqwysk0j9TDG2iXzCmRftt60l4YLE89GTI91eeu3ETSk04QOpnY38MU1cpDXHpoL6xsSFztyhsSY6ABrquJ6zRLOIfEs53DCK66I/P5kK+g+XCs3q5OuhFQhYk7CDUQkDkJozfqjqVBc2hIWXm+wlxB4vjgvHVbuu75Fo4Zuu5NBslPmk2ngvmVF7RLIVjyi0Eoyk3aF3oyRXUEO114UMwI5U1+K83JSDqpBM1Y+TazLvo6F+kpL4U3IGt0RRBTQzUzQz1UTpjkn3GaLY9xmaG2rixMVNgaJLdUT9C3qiCO97UQQch21Y7lTQ6xhCtgTiAWdbAGejMjJOzqZBQ0BQHi8VI93Htx4hf3EWZ17Jjz6uHmDiOgYMnrGEKPVCaTFYY/tYTK2Oy0uKGNW2hb8MhaRm71aTuyhoJm1/ZE8L1W8BxqmEHROLT3UcqivbkosuYwaYkvyinRoPBYjNKV+Rp3JZorLTBR4264Eq6paAzMxrHcPgHuZPB3VQKKsvKjeVQY0oT5OycFtikMdj1ZQwqdla3zjLmglxpnNlIJBYXjLJGt7UINh/mnUHCeB46UiFPnvaSKJhMsHUSTd2wtcJspTSQT6/hzYO/E/UW560n7UVLEHipBU8cIxQRIgKjE46VKgE0TTxux4FWMYqooolcU44YA55mEDFPiC7xq186ZxIU78foMJ6BoN9x1mBg29StAkhJgVqCq1kh8OaKJvKQGjYC8SlcqVQmoXagHuCjx7OUecomJ++JjG2NKmFvv4X46870pgToCVrw4IxUGwE1OMgfWG7jiEaaZ8IgYe157HvlitBG6NXLmprAaFHHiN+RwR+BJT8se7nbjK316uIYlZwRyerxaibNLPczK9YEi5BXHq0gLesUtOOqZe4DbI/uG9xiF6dTX+rnHBEkrivLJwNKp87oyX61UQ6SbeTRtDVMovHWOzNVQ1CRNHDfkYyuiUSefNQf7tnh0VVST6+yWIb2bjy9vM7dBCTJPp64akmX293IOzNcxnZNCP4hnVMgb6ypxttEE2aWAwGVuRkqhYD5VztCE6nSfiE1rCD3x3vPIo5rVqHe+lijeQsdudA734pUTz34qxueX1RBB1xurrnWDT6OTcK8XlRWmFa704SZ6V+5h0VRcY9y/AgGxRg5TvAvfjxB7WkrhLFOYGFk4xVxauD8nIS+V+eB2G1p0zUFrcAlSDZ1wmasEW8h658S4TKhevo4We2anhVtT52bV0ASTuL7Bi6Z05ipfgbgC/Luf+UuiWxPnHoxA7PTJZZcjVNiZ5qPLOcau6JVfYMyfpIvmZIW37dzrpcRjMkdoIEk8h88JgieArdXhRsPEE6/G/iD3gLem7hr/ZE4l9BCHZh7l/x0E9o/P779++Pafnz/+9tuXr2+vv77c/v7n17eXX95ef//00+VHXz68//xi//s3);lineShape=1;strokeColor=#FFFFFF;" vertex="1" parent="S1POpZvNvTF6GCCWDh-q-76">
          <mxGeometry x="33.7407259789552" y="2.9218699821506675" width="52.36003443944361" height="11.228347703090373" as="geometry" />
        </mxCell>
        <mxCell id="S1POpZvNvTF6GCCWDh-q-75" value="" style="shape=stencil(fVbLctswDPwaXXdIgM9zmv5HZuLEmrh2xnHa5u9DViUjUApuFKUlFosFxInv3o4Pr4eJzNvtenk5/Jkfb8eJf0xE8/l4uM63spr4fuK7p8v18Hy9vJ8fl+fXh/plXf26/K4n/F1wySNxRZH5WHZsQEr/dn4ugNN8XgGyh4kCQBnRKIDy2gqAc4hZBVAWgGDgowLgMYfowUqExMiSUooICiAWAkEAcoBVAN6DjJTVGBhFJs5wJEMkRPoeQK7VqQMITqmcZRipa7LITkkCLHMISU2awDIDT6qqDk6KyhHGKwlYeEmohPxfyH1CPX6vgkVUInAYNS1W1RSiZszOCEEhVAWUxvPwSslqgQYbMTgorVAsMBDyLeQ+oJusFyGrKax83HMoRlFEra0iRS3tFJQkajN6adTSsAogbpxaR4JCqQwU5ySgD519q7omygoQNevl1osd0Afnvq4BQRaijmYl6QrgDUCJkNqY7mWIsKw0wzguQlCbx7TT1r5Qzt/4yDG80mw08meC0Ww08ifbpvi+oNtfITUj7hPycDKCV11Xpsswvwoh5XuXQNIS+i/EZ+Q0nK+ZOlqYNPDXGjkZpM04zQJQFl83jaf5dFouKuv3482kbC23Gr7/BA==);lineShape=1;strokeColor=#FFFFFF;" vertex="1" parent="S1POpZvNvTF6GCCWDh-q-76">
          <mxGeometry x="53.13075326509227" y="2.448449382669196" width="5.342400626144203" height="5.358114701245551" as="geometry" />
        </mxCell>
        <mxCell id="S1POpZvNvTF6GCCWDh-q-78" value="" style="ellipse;whiteSpace=wrap;html=1;aspect=fixed;fillColor=none;strokeWidth=9;strokeColor=#2B9DF8;" vertex="1" parent="S1POpZvNvTF6GCCWDh-q-80">
          <mxGeometry x="34.93000000000001" y="35.995875222769996" width="51" height="51" as="geometry" />
        </mxCell>
      </root>
    </mxGraphModel>
  </diagram>
</mxfile>
